<svg width="388" height="546" viewBox="0 0 388 546" fill="none" xmlns="http://www.w3.org/2000/svg">
<path d="M191.881 380.722C191.881 378.497 193.685 376.693 195.909 376.693C198.133 376.693 199.938 378.497 199.938 380.722C199.938 382.946 198.133 384.75 195.909 384.75C193.685 384.775 191.881 382.946 191.881 380.722Z" fill="url(#paint0_linear)"/>
<path d="M196.576 316.366H195.242V378.423H196.576V316.366Z" fill="url(#paint1_linear)"/>
<path d="M87.9577 290.614C87.9577 288.389 89.7618 286.585 91.9861 286.585C94.2104 286.585 96.0145 288.389 96.0145 290.614C96.0145 292.838 94.2104 294.642 91.9861 294.642C89.7618 294.642 87.9577 292.838 87.9577 290.614Z" fill="url(#paint2_linear)"/>
<path d="M92.6534 127.673H91.3188V288.291H92.6534V127.673Z" fill="url(#paint3_linear)"/>
<path d="M379.288 315.155C379.288 312.931 381.092 311.127 383.317 311.127C385.541 311.127 387.345 312.931 387.345 315.155C387.345 317.379 385.541 319.183 383.317 319.183C381.092 319.183 379.288 317.379 379.288 315.155Z" fill="url(#paint4_linear)"/>
<path d="M383.984 152.215H382.649V312.832H383.984V152.215Z" fill="url(#paint5_linear)"/>
<path d="M42.0141 151.745C42.0141 149.521 43.8182 147.717 46.0424 147.717C48.2667 147.717 50.0709 149.521 50.0709 151.745C50.0709 153.969 48.2667 155.773 46.0424 155.773C43.8429 155.798 42.0141 153.994 42.0141 151.745Z" fill="url(#paint6_linear)"/>
<path d="M46.7345 60.4508H45.3999V149.446H46.7345V60.4508Z" fill="url(#paint7_linear)"/>
<path d="M166.746 221.884C166.746 219.659 168.551 217.855 170.775 217.855C172.999 217.855 174.803 219.659 174.803 221.884C174.803 224.108 172.999 225.912 170.775 225.912C168.551 225.937 166.746 224.108 166.746 221.884Z" fill="url(#paint8_linear)"/>
<path d="M171.442 130.59H170.108V219.585H171.442V130.59Z" fill="url(#paint9_linear)"/>
<path d="M329.563 191.806C329.563 189.582 331.367 187.778 333.592 187.778C335.816 187.778 337.62 189.582 337.62 191.806C337.62 194.031 335.816 195.835 333.592 195.835C331.367 195.86 329.563 194.055 329.563 191.806Z" fill="url(#paint10_linear)"/>
<path d="M334.284 100.512H332.949V189.483H334.284V100.512Z" fill="url(#paint11_linear)"/>
<path d="M294.271 228.903C294.271 226.678 296.076 224.874 298.3 224.874C300.524 224.874 302.328 226.678 302.328 228.903C302.328 231.127 300.524 232.931 298.3 232.931C296.076 232.931 294.271 231.127 294.271 228.903Z" fill="url(#paint12_linear)"/>
<path d="M298.992 137.608H297.657V226.604H298.992V137.608Z" fill="url(#paint13_linear)"/>
<path d="M154.908 296.273C154.908 294.049 156.712 292.245 158.937 292.245C161.161 292.245 162.965 294.049 162.965 296.273C162.965 298.498 161.161 300.302 158.937 300.302C156.712 300.326 154.908 298.498 154.908 296.273Z" fill="url(#paint14_linear)"/>
<path d="M159.629 127.055H158.294V293.95H159.629V127.055Z" fill="url(#paint15_linear)"/>
<path d="M178.362 265.677C178.362 263.453 180.166 261.649 182.391 261.649C184.615 261.649 186.419 263.453 186.419 265.677C186.419 267.901 184.615 269.706 182.391 269.706C180.166 269.706 178.362 267.901 178.362 265.677Z" fill="url(#paint16_linear)"/>
<path d="M183.082 130.12H181.748V263.354H183.082V130.12Z" fill="url(#paint17_linear)"/>
<path d="M120.877 442.655C120.877 440.431 122.681 438.627 124.905 438.627C127.13 438.627 128.934 440.431 128.934 442.655C128.934 444.879 127.13 446.684 124.905 446.684C122.706 446.684 120.877 444.879 120.877 442.655Z" fill="url(#paint18_linear)"/>
<path d="M125.597 133.308H124.263V440.332H125.597V133.308Z" fill="url(#paint19_linear)"/>
<path d="M238.393 309.347C238.393 307.123 240.197 305.319 242.421 305.319C244.645 305.319 246.45 307.123 246.45 309.347C246.45 311.571 244.645 313.375 242.421 313.375C240.197 313.375 238.393 311.571 238.393 309.347Z" fill="url(#paint20_linear)"/>
<path d="M243.113 0H241.779V307.024H243.113V0Z" fill="url(#paint21_linear)"/>
<path d="M299.56 326.523C299.56 324.299 301.364 322.495 303.589 322.495C305.813 322.495 307.617 324.299 307.617 326.523C307.617 328.748 305.813 330.552 303.589 330.552C301.364 330.552 299.56 328.748 299.56 326.523Z" fill="url(#paint22_linear)"/>
<path d="M304.256 17.1764H302.921V324.2H304.256V17.1764Z" fill="url(#paint23_linear)"/>
<path d="M52.7153 510.248C52.7153 508.024 54.5194 506.22 56.7437 506.22C58.968 506.22 60.7721 508.024 60.7721 510.248C60.7721 512.473 58.968 514.277 56.7437 514.277C54.5442 514.277 52.7153 512.473 52.7153 510.248Z" fill="url(#paint24_linear)"/>
<path d="M57.4357 200.901H56.1011V507.925H57.4357V200.901Z" fill="url(#paint25_linear)"/>
<path d="M376.125 257.695H374.79V564.718H376.125V257.695Z" fill="url(#paint26_linear)"/>
<path d="M310.533 388.63C310.533 386.406 312.338 384.602 314.562 384.602C316.786 384.602 318.59 386.406 318.59 388.63C318.59 390.854 316.786 392.659 314.562 392.659C312.338 392.659 310.533 390.854 310.533 388.63Z" fill="url(#paint27_linear)"/>
<path d="M315.254 79.2831H313.919V386.307H315.254V79.2831Z" fill="url(#paint28_linear)"/>
<path d="M3.05176e-05 428.197C3.05176e-05 425.973 1.8041 424.169 4.02837 424.169C6.25265 424.169 8.05679 425.973 8.05679 428.197C8.05679 430.422 6.25265 432.226 4.02837 432.226C1.8041 432.251 3.05176e-05 430.446 3.05176e-05 428.197Z" fill="url(#paint29_linear)"/>
<path d="M4.69572 256.014H3.36113V425.874H4.69572V256.014Z" fill="url(#paint30_linear)"/>
<path d="M69.4467 243.089C69.4467 240.864 71.2509 239.06 73.4752 239.06C75.6994 239.06 77.5036 240.864 77.5036 243.089C77.5036 245.313 75.6994 247.117 73.4752 247.117C71.2509 247.142 69.4467 245.338 69.4467 243.089Z" fill="url(#paint31_linear)"/>
<path d="M74.1672 117.763H72.8326V240.79H74.1672V117.763Z" fill="url(#paint32_linear)"/>
<path d="M289.082 460.202C289.082 457.978 290.886 456.174 293.11 456.174C295.334 456.174 297.138 457.978 297.138 460.202C297.138 462.427 295.334 464.231 293.11 464.231C290.886 464.231 289.082 462.427 289.082 460.202Z" fill="url(#paint33_linear)"/>
<path d="M293.802 287.994H292.467V457.855H293.802V287.994Z" fill="url(#paint34_linear)"/>
<defs>
<linearGradient id="paint0_linear" x1="195.91" y1="358.066" x2="195.91" y2="288.068" gradientUnits="userSpaceOnUse">
<stop stop-color="#A4FFFF"/>
<stop offset="1" stop-color="#A4FFFF" stop-opacity="0"/>
</linearGradient>
<linearGradient id="paint1_linear" x1="195.909" y1="364.217" x2="195.909" y2="315.388" gradientUnits="userSpaceOnUse">
<stop stop-color="#A4FFFF"/>
<stop offset="1" stop-color="#A4FFFF" stop-opacity="0"/>
</linearGradient>
<linearGradient id="paint2_linear" x1="91.9863" y1="267.943" x2="91.9863" y2="197.923" gradientUnits="userSpaceOnUse">
<stop stop-color="#A4FFFF"/>
<stop offset="1" stop-color="#A4FFFF" stop-opacity="0"/>
</linearGradient>
<linearGradient id="paint3_linear" x1="91.9851" y1="251.561" x2="91.9851" y2="125.179" gradientUnits="userSpaceOnUse">
<stop stop-color="#A4FFFF"/>
<stop offset="1" stop-color="#A4FFFF" stop-opacity="0"/>
</linearGradient>
<linearGradient id="paint4_linear" x1="383.314" y1="292.466" x2="383.314" y2="222.425" gradientUnits="userSpaceOnUse">
<stop stop-color="#A4FFFF"/>
<stop offset="1" stop-color="#A4FFFF" stop-opacity="0"/>
</linearGradient>
<linearGradient id="paint5_linear" x1="383.314" y1="276.091" x2="383.314" y2="149.705" gradientUnits="userSpaceOnUse">
<stop stop-color="#A4FFFF"/>
<stop offset="1" stop-color="#A4FFFF" stop-opacity="0"/>
</linearGradient>
<linearGradient id="paint6_linear" x1="46.0625" y1="129.083" x2="46.0625" y2="59.063" gradientUnits="userSpaceOnUse">
<stop stop-color="#A4FFFF"/>
<stop offset="1" stop-color="#A4FFFF" stop-opacity="0"/>
</linearGradient>
<linearGradient id="paint7_linear" x1="46.0613" y1="129.083" x2="46.0613" y2="59.0636" gradientUnits="userSpaceOnUse">
<stop stop-color="#A4FFFF"/>
<stop offset="1" stop-color="#A4FFFF" stop-opacity="0"/>
</linearGradient>
<linearGradient id="paint8_linear" x1="170.773" y1="199.207" x2="170.773" y2="129.166" gradientUnits="userSpaceOnUse">
<stop stop-color="#A4FFFF"/>
<stop offset="1" stop-color="#A4FFFF" stop-opacity="0"/>
</linearGradient>
<linearGradient id="paint9_linear" x1="170.772" y1="199.213" x2="170.772" y2="129.194" gradientUnits="userSpaceOnUse">
<stop stop-color="#A4FFFF"/>
<stop offset="1" stop-color="#A4FFFF" stop-opacity="0"/>
</linearGradient>
<linearGradient id="paint10_linear" x1="333.608" y1="169.146" x2="333.608" y2="99.1258" gradientUnits="userSpaceOnUse">
<stop stop-color="#A4FFFF"/>
<stop offset="1" stop-color="#A4FFFF" stop-opacity="0"/>
</linearGradient>
<linearGradient id="paint11_linear" x1="333.609" y1="169.144" x2="333.609" y2="99.1262" gradientUnits="userSpaceOnUse">
<stop stop-color="#A4FFFF"/>
<stop offset="1" stop-color="#A4FFFF" stop-opacity="0"/>
</linearGradient>
<linearGradient id="paint12_linear" x1="298.315" y1="206.234" x2="298.315" y2="136.214" gradientUnits="userSpaceOnUse">
<stop stop-color="#A4FFFF"/>
<stop offset="1" stop-color="#A4FFFF" stop-opacity="0"/>
</linearGradient>
<linearGradient id="paint13_linear" x1="298.313" y1="206.234" x2="298.313" y2="136.215" gradientUnits="userSpaceOnUse">
<stop stop-color="#A4FFFF"/>
<stop offset="1" stop-color="#A4FFFF" stop-opacity="0"/>
</linearGradient>
<linearGradient id="paint14_linear" x1="158.951" y1="256.788" x2="158.951" y2="132.089" gradientUnits="userSpaceOnUse">
<stop stop-color="#A4FFFF"/>
<stop offset="1" stop-color="#A4FFFF" stop-opacity="0"/>
</linearGradient>
<linearGradient id="paint15_linear" x1="158.952" y1="256.79" x2="158.952" y2="132.092" gradientUnits="userSpaceOnUse">
<stop stop-color="#A4FFFF"/>
<stop offset="1" stop-color="#A4FFFF" stop-opacity="0"/>
</linearGradient>
<linearGradient id="paint16_linear" x1="182.406" y1="226.18" x2="182.406" y2="101.481" gradientUnits="userSpaceOnUse">
<stop stop-color="#A4FFFF"/>
<stop offset="1" stop-color="#A4FFFF" stop-opacity="0"/>
</linearGradient>
<linearGradient id="paint17_linear" x1="182.407" y1="233.675" x2="182.407" y2="134.127" gradientUnits="userSpaceOnUse">
<stop stop-color="#A4FFFF"/>
<stop offset="1" stop-color="#A4FFFF" stop-opacity="0"/>
</linearGradient>
<linearGradient id="paint18_linear" x1="124.926" y1="403.166" x2="124.926" y2="278.467" gradientUnits="userSpaceOnUse">
<stop stop-color="#A4FFFF"/>
<stop offset="1" stop-color="#A4FFFF" stop-opacity="0"/>
</linearGradient>
<linearGradient id="paint19_linear" x1="124.926" y1="371.961" x2="124.926" y2="142.573" gradientUnits="userSpaceOnUse">
<stop stop-color="#A4FFFF"/>
<stop offset="1" stop-color="#A4FFFF" stop-opacity="0"/>
</linearGradient>
<linearGradient id="paint20_linear" x1="242.433" y1="269.841" x2="242.433" y2="145.104" gradientUnits="userSpaceOnUse">
<stop stop-color="#A4FFFF"/>
<stop offset="1" stop-color="#A4FFFF" stop-opacity="0"/>
</linearGradient>
<linearGradient id="paint21_linear" x1="242.433" y1="238.647" x2="242.433" y2="9.25916" gradientUnits="userSpaceOnUse">
<stop stop-color="#A4FFFF"/>
<stop offset="1" stop-color="#A4FFFF" stop-opacity="0"/>
</linearGradient>
<linearGradient id="paint22_linear" x1="303.592" y1="287.022" x2="303.592" y2="162.288" gradientUnits="userSpaceOnUse">
<stop stop-color="#A4FFFF"/>
<stop offset="1" stop-color="#A4FFFF" stop-opacity="0"/>
</linearGradient>
<linearGradient id="paint23_linear" x1="303.592" y1="255.831" x2="303.592" y2="26.441" gradientUnits="userSpaceOnUse">
<stop stop-color="#A4FFFF"/>
<stop offset="1" stop-color="#A4FFFF" stop-opacity="0"/>
</linearGradient>
<linearGradient id="paint24_linear" x1="56.7615" y1="470.758" x2="56.7615" y2="346.06" gradientUnits="userSpaceOnUse">
<stop stop-color="#A4FFFF"/>
<stop offset="1" stop-color="#A4FFFF" stop-opacity="0"/>
</linearGradient>
<linearGradient id="paint25_linear" x1="56.7615" y1="439.554" x2="56.7615" y2="210.168" gradientUnits="userSpaceOnUse">
<stop stop-color="#A4FFFF"/>
<stop offset="1" stop-color="#A4FFFF" stop-opacity="0"/>
</linearGradient>
<linearGradient id="paint26_linear" x1="375.461" y1="496.345" x2="375.461" y2="266.956" gradientUnits="userSpaceOnUse">
<stop stop-color="#A4FFFF"/>
<stop offset="1" stop-color="#A4FFFF" stop-opacity="0"/>
</linearGradient>
<linearGradient id="paint27_linear" x1="314.573" y1="349.146" x2="314.573" y2="224.485" gradientUnits="userSpaceOnUse">
<stop stop-color="#A4FFFF"/>
<stop offset="1" stop-color="#A4FFFF" stop-opacity="0"/>
</linearGradient>
<linearGradient id="paint28_linear" x1="314.573" y1="317.93" x2="314.573" y2="88.5425" gradientUnits="userSpaceOnUse">
<stop stop-color="#A4FFFF"/>
<stop offset="1" stop-color="#A4FFFF" stop-opacity="0"/>
</linearGradient>
<linearGradient id="paint29_linear" x1="4.03162" y1="388.719" x2="4.03162" y2="264.02" gradientUnits="userSpaceOnUse">
<stop stop-color="#A4FFFF"/>
<stop offset="1" stop-color="#A4FFFF" stop-opacity="0"/>
</linearGradient>
<linearGradient id="paint30_linear" x1="4.03262" y1="388.058" x2="4.03262" y2="261.146" gradientUnits="userSpaceOnUse">
<stop stop-color="#A4FFFF"/>
<stop offset="1" stop-color="#A4FFFF" stop-opacity="0"/>
</linearGradient>
<linearGradient id="paint31_linear" x1="73.4917" y1="203.61" x2="73.4917" y2="78.9117" gradientUnits="userSpaceOnUse">
<stop stop-color="#A4FFFF"/>
<stop offset="1" stop-color="#A4FFFF" stop-opacity="0"/>
</linearGradient>
<linearGradient id="paint32_linear" x1="73.493" y1="213.385" x2="73.493" y2="121.474" gradientUnits="userSpaceOnUse">
<stop stop-color="#A4FFFF"/>
<stop offset="1" stop-color="#A4FFFF" stop-opacity="0"/>
</linearGradient>
<linearGradient id="paint33_linear" x1="293.128" y1="420.716" x2="293.128" y2="296.055" gradientUnits="userSpaceOnUse">
<stop stop-color="#A4FFFF"/>
<stop offset="1" stop-color="#A4FFFF" stop-opacity="0"/>
</linearGradient>
<linearGradient id="paint34_linear" x1="293.127" y1="420.044" x2="293.127" y2="293.129" gradientUnits="userSpaceOnUse">
<stop stop-color="#A4FFFF"/>
<stop offset="1" stop-color="#A4FFFF" stop-opacity="0"/>
</linearGradient>
</defs>
</svg>
